<svg xmlns="http://www.w3.org/2000/svg" viewBox="0 0 6507.82 2994.77"><defs><style>.cls-1{fill:#0a0a0a;}</style></defs><g id="Layer_1" data-name="Layer 1"><path class="cls-1" d="M1417.93,1288c1.6-5.35,3.2-9.67,4.17-14.13,34.11-156.49,101-298.19,193.73-428.12,87.83-123.06,194-228.26,314.05-319.65,141.89-108,297.06-192.22,462.79-257.38a2231.51,2231.51,0,0,1,386.57-112.59q104.94-20.65,211.22-32.15c104.82-11.32,209.92-16.47,315.31-14.14q110.92,2.44,221.34,14.24c190.89,20.52,376.67,62.85,556.72,129.51,175.81,65.09,340.43,151.34,490.78,263.89,123,92,231.7,198.34,321.79,323.13,83.39,115.5,146.29,241,184,378.69,5.44,19.88,9.76,40.07,14.62,60.12,1.87,7.72,2.81,8.78,10.7,8.86,26,.27,52,.35,78,.39,32,.06,64-.09,96,0,33,.12,65.11-5,95.86-16.87,48.56-18.74,81.28-52.26,93.14-104a204,204,0,0,0,4.37-65.55,449.43,449.43,0,0,0-16.89-86.08,762.71,762.71,0,0,0-41.07-106c-2.56-5.41-5.42-10.76-7.23-16.44-3.27-10.22,5.77-20.66,16.42-19.14a57.88,57.88,0,0,1,11.5,3.34c83,30.46,161.27,69.7,231.56,123.8,37.16,28.6,70.49,61.07,97.6,99.57,23.64,33.57,41,70,49.6,110.32,10.28,48,7.2,95.3-6.32,142.21-12.09,42-31.53,80.45-55,117.07-5,7.85-10.15,15.66-15.72,23.12-3.38,4.52-3.12,8,.07,12.45,17.34,24.48,33.06,50,46.11,77,14.52,30.11,25.67,61.27,31.81,94.26q18,96.92-27.77,184c-23.23,44.29-55.46,81.3-92.79,114.09-48.38,42.49-102.68,76-160.21,104.43a847.88,847.88,0,0,1-95.44,40.61c-4.39,1.54-8.75,3.41-13.29,4.21-13.58,2.4-22-7.72-17.27-20.58,2.08-5.6,4.89-10.93,7.39-16.38,20.07-43.61,37.42-88.19,48.17-135.13a367.67,367.67,0,0,0,9.42-69.17,198.22,198.22,0,0,0-5.73-53.47c-10.25-42.87-35.55-73.85-74.61-93.65-34.55-17.51-71.61-24.54-110.08-24.71-41.32-.17-82.64,0-124,0-17.33,0-34.66.06-52,.3-10.3.15-10.45.35-12.78,11.12a1109,1109,0,0,1-82.44,241.24c-64,135-150.92,253.81-255.6,360-130.33,132.15-280.31,237.28-444.91,322-154,79.26-315.79,137.44-484.12,177.87q-111.75,26.84-225.54,42.73c-60,8.36-120.34,14.53-180.9,18.17-67.89,4.07-135.79,6.85-203.78,5.23-74-1.77-147.76-5.81-221.39-13.55-180.18-18.95-356-57.19-527-117.07-182.68-64-353.89-150.31-510.55-264.52-120.26-87.67-227.49-188.91-317.87-307.49-86.33-113.25-152.94-236.86-195.15-373.21-8.67-28-16.26-56.25-22.52-84.87-.85-3.9-2-7.75-2.84-11.64-.84-3.68-2.92-5.74-6.83-5.78-4.66,0-9.32-.22-14-.23q-85-.19-169.94-.36c-32.28-.1-63.65,4.81-94,16.09a176.48,176.48,0,0,0-32.22,15.78c-35.36,22.13-55.92,54.17-63.93,94.81-6.43,32.62-3.93,65,2.11,97.3,10,53.37,29.37,103.57,51.86,152.71,2.77,6,6,12,8,18.24a14.16,14.16,0,0,1-14.66,18.56,51.67,51.67,0,0,1-13.46-3.35c-83.14-30.08-161.24-69.64-231.57-123.7-31.28-24-59.82-51-84.38-82-29.32-37-51.06-77.82-61.81-124.09-12.57-54.12-7.47-107.16,9.87-159.43,13.95-42,35-80.39,59.73-117,13.08-19.37,13.13-11.69-.5-32-26.46-39.44-48.71-80.88-62.45-126.64Q662.35,1225.68,737.64,1111c28.42-43.45,65-79.23,106-110.6,69.92-53.48,147.71-92.27,230-122.48a62,62,0,0,1,9.61-2.75c12-2.34,21.36,7.62,17.59,19.1-1.86,5.66-4.64,11-7.17,16.46-20.3,43.52-37.68,88.11-48.57,135-6.34,27.31-10.46,54.94-9.76,83.13a193.09,193.09,0,0,0,5.58,41.51c10.71,43.4,36.54,74.82,76.63,94.42,34.77,17,71.86,23.84,110.3,23.91,54.65.09,109.3-.07,164-.17C1400.41,1288.45,1409,1288.17,1417.93,1288ZM3256.57,2866c97.36-.22,194.42-5.25,291.14-16.92,73.43-8.86,146.29-20.74,218.62-36.15,152.83-32.57,300.75-80.12,443.19-144.5,166.76-75.37,320.63-171,457.66-292.77,109.33-97.18,203.15-207.32,276.91-334,89-152.84,140.13-317.14,149.11-494.1,3.56-70.1-.91-139.87-11.84-209.12-18.2-115.37-55.3-224.59-109-328.23-64.65-124.77-149.13-234.74-249.11-333.05C4609.89,565.68,4482,473.83,4342.49,398.09c-264.73-143.74-548.85-223-847.62-252.67-63.68-6.33-127.59-9.26-191.55-10.85-68.66-1.71-137.22,1-205.76,5-60.56,3.59-120.85,9.8-180.88,18.19q-103.86,14.51-206.06,38.36C2549.2,233.58,2393.7,287.66,2245,360.94c-149,73.44-286.61,163.87-409.64,275.86-111.22,101.25-205.87,215.84-278.26,348.07-83.91,153.25-131.11,316.66-134.94,492a1030.33,1030.33,0,0,0,27,259.62c28.63,121.68,77.59,234.77,143.95,340.46,80.11,127.57,180.37,237.36,296,333.47C2013.25,2513.65,2149.91,2597,2296.6,2664c247.34,113.07,507.67,174.77,778.2,195.59C3135.29,2864.29,3195.91,2865.77,3256.57,2866ZM1406.44,1314.94c-5.77-2.81-10.51-2-15.11-2-19.33,0-38.65.15-58,.13-40.65,0-81.32.61-121.94-.49-38.37-1-75.17-10-109.35-28-40.19-21.15-67.8-53.23-81.47-96.68a210.19,210.19,0,0,1-9.35-57c-.9-30.18,3.2-59.8,9.84-89.12,9.59-42.35,24.63-82.84,41.75-122.64,1.24-2.89,6-6.2.42-11.06-9.92,4.06-20.38,8.18-30.71,12.59-66.42,28.4-129.26,63-185.67,108.47-34.43,27.76-65.19,59-89.45,96.24q-69.23,106.18-31.56,227.24c14.21,45.65,37.12,86.73,64.41,125.63,4.94,7,9.58,14.28,14.35,21.43-2.26,9.48-9.69,15.72-14.93,23.27-27.12,39-50.13,80.09-64.09,125.8-13.68,44.76-17.39,90-7.08,136,9,40.4,27.39,76.22,52.06,109.07,20.93,27.86,45.47,52.25,72.37,74.27,65.59,53.71,139.72,92.38,218.15,123.4,1.9.75,3.82.15,5.41-1.89-3.32-7.75-6.83-15.64-10.13-23.63-17.06-41.29-31.59-83.39-39.47-127.5-6.13-34.31-8.45-68.73-1.89-103.31,9-47.53,32.71-85.27,73.83-111.55a204.57,204.57,0,0,1,39.32-19.37c32.88-12.19,67-17.08,101.9-17,52,0,104,.36,155.93.42,6.56,0,13.28,1.24,20.46-1.72-3.75-26.77-7.5-53.62-11.15-79.7-5.26-3.52-10.06-2.37-14.61-2.39q-77-.31-153.93-.42c-43,0-84.94,6.81-125.35,21.6-71.84,26.3-124.41,73.33-153.1,145.15-14.81,37.06-19.53,75.91-18.67,115.58.12,5.32.73,10.77-.17,15.93-1.75,10-12.34,15.22-21.56,10.81-3.54-1.69-6.65-4.36-9.77-6.83a380.71,380.71,0,0,1-45.33-42.16c-15.28-16.84-28.68-35-39-55.35-14.2-27.91-21.15-57.25-18.95-88.69,1.5-21.49,7-42,14.52-62,12.79-33.93,31.48-64.56,52.83-93.65,13-17.72,26.26-35.26,39.49-52.81,9-12,7.53-11.31-.51-22.16-14.68-19.79-29.64-39.38-44.2-59.27-17.34-23.72-32.4-48.8-43.74-76-9.28-22.26-15.66-45.28-17.81-69.35-3.56-40.06,7.14-76.49,28.64-110,20.75-32.38,47.89-58.77,77.87-82.44a35.86,35.86,0,0,1,4.93-3.38c9.64-5.3,20.86,0,22.78,10.95.67,3.88.15,8,.23,12,.23,12.65-.21,25.36.85,37.94,8.73,103.28,59.17,177.53,154.66,219.61,43.84,19.32,90.19,27.89,138,28.1,52.65.24,105.29,0,157.94-.18,4.54,0,9.37,1.18,14-2.39C1398.92,1368.53,1402.61,1342.2,1406.44,1314.94Zm4034.47,778.55c20.09-6.48,35.67-13.6,51.29-20.59,63.48-28.41,123.41-62.69,177-107.39,31.37-26.16,59.39-55.41,81.92-89.68,46.46-70.65,56.89-146.34,32.25-227.13-12.36-40.5-31.83-77.45-55.16-112.52-7.74-11.62-15.87-23-23.82-34.48,4.85-14,15.55-24.37,23.45-36.45,23.82-36.39,44.08-74.42,56.51-116.28,13.13-44.23,16.06-89,6-134.21-8.7-39-26.4-73.76-50-105.68-21.54-29.09-47-54.45-74.94-77.29-65.12-53.17-138.6-91.61-216.41-122.35-1.73-.68-3.86-1.31-6.14,1.6,3,7.25,6.21,15.08,9.49,22.86,15,35.64,27.79,72,36.08,109.82,8.61,39.28,13.23,78.79,6.14,118.92-8.69,49.14-32.85,88-75.38,114.92a201.62,201.62,0,0,1-41.33,19.74c-32.41,11.38-65.8,16.16-100.06,16q-79.95-.37-159.91-.34c-4.6,0-9.2.43-14.14.67-2.13,10,2.18,18.81,3.08,27.88,1.64,16.55,4.29,33,6.53,49.49.53,3.84,2.7,5.78,6.65,5.76s8,.09,12,.1q76,.11,151.92.18c45.08,0,88.81-7.86,130.77-24.36,78.07-30.71,130.33-85.61,154.17-166.55,8.73-29.66,11.19-60.13,10.54-90.93-.11-5.32-.69-10.75.11-16,1.58-10.17,13-17,22.77-10.79a90.55,90.55,0,0,1,8.08,5.84,390.45,390.45,0,0,1,49.4,46.54c14.59,16.57,27.38,34.4,37,54.31,15.83,32.7,21.14,66.85,15.08,102.95-4.69,27.92-14.14,54-27,79a379.45,379.45,0,0,1-32.77,52.46c-14.65,19.81-29.51,39.47-44.17,59.27-7.94,10.72-9.72,10-.57,22.15q18.63,24.73,37.13,49.57a466.86,466.86,0,0,1,36.83,57,307.93,307.93,0,0,1,27,66.41c12.08,44.57,7,87-14.72,127.63a243,243,0,0,1-24.26,36.58c-17.5,22-37.91,41.1-59.81,58.65a49.6,49.6,0,0,1-6.4,4.76c-10.71,6-22.36.42-23.82-11.67-.56-4.59,0-9.31,0-14,.07-21.33-.43-42.56-4.28-63.69-14.95-82-58.38-143.26-132.5-181.83-53.16-27.67-110.42-37.78-169.94-37-15.32.2-30.64.1-46,.14q-50,.11-99.95.23c-3.91,0-8-.86-12.83,2.45-3.59,25.87-7.32,52.72-11,79.51,7.11,3.23,13.82,1.84,20.33,1.85,32.65.07,65.3-.24,97.95-.14,28.64.09,57.33-.42,85.9,1.1a239.47,239.47,0,0,1,101.21,28c40.75,21.8,68.12,54.88,81.27,99.22a209.71,209.71,0,0,1,8.48,57.14c.57,43.77-8.43,86-21.21,127.52C5467.31,2031,5455.09,2060.48,5440.91,2093.49Zm-4538-218.07c3.84-4.31,2.46-9.21,2.81-13.7,1.15-14.6,1.83-29.17,4.5-43.68q27.41-149,166.12-209.54c50.85-22.21,104.59-30.22,159.74-30.13,47.28.08,94.56.3,141.84.41a78.67,78.67,0,0,0,9.95-.51c3-.37,4.54-2.35,4.53-5.41,0-2,0-4-.1-6a1327.15,1327.15,0,0,1,0-133.81,52,52,0,0,0,.15-6,5.34,5.34,0,0,0-4.77-5.37,57.33,57.33,0,0,0-8-.27c-46.63.07-93.26-.28-139.88.35-52.49.71-103.62-6.26-152.66-25.34-80.88-31.48-137.41-87.09-165.92-169.79A291.18,291.18,0,0,1,906,1146.5c-.37-7,1.22-14.48-2.39-20.61-3.13-.89-4.62.42-6.11,1.72-20.19,17.59-38.22,37.1-52.77,59.65-9.8,15.18-17.42,31.35-21.79,49-7.63,30.81-3.78,60.81,6.14,90.36,11.13,33.15,28.65,62.89,49.25,90.91,14.6,19.85,29.54,39.44,44.2,59.24,5.52,7.45,10.71,15.15,16,22.74-3,9.84-10.6,16.66-16.36,24.66-19,26.48-39,52.3-57.44,79.22A295.27,295.27,0,0,0,826,1684c-13.76,44.84-7.82,86.7,16.91,126.26,15,23.93,33.84,44.44,55,62.9C899.29,1874.32,901.29,1874.72,902.87,1875.42ZM5221.61,1421.7v-.27h-79.92c-6,0-12-.12-18,.13-6.14.25-8,2.41-7.44,8.92,3.09,35.22,2.66,70.49,1.84,105.77-.26,11.3-1.26,22.58-1.84,33.88-.32,6.15,1.51,8.26,7.95,8.53,6.65.28,13.32.18,20,.13,18-.12,35.95-.39,53.93-.44,26.63-.07,53.26-.19,79.88,0,49.65.42,98.17,7.57,144.57,25.95,92.8,36.77,151.29,103.35,173.91,200.92,5,21.52,6.74,43.38,7,65.4,0,2.06.65,4,2.81,4.56a4.74,4.74,0,0,0,3.64-1c30.34-26.64,56.72-56.37,71.44-94.69a133.63,133.63,0,0,0,6.2-76.52,249.28,249.28,0,0,0-15.75-49.28c-11.52-26.37-26.56-50.66-43.53-73.78-15.76-21.47-31.86-42.68-47.81-64-2.79-3.73-5.64-7.42-8.35-11.21a7,7,0,0,1,.18-9.12c2.85-3.69,5.57-7.48,8.36-11.21,16.74-22.39,33.69-44.64,50.19-67.21,23.31-31.89,42.61-65.82,53.16-104.3,11.73-42.78,6.35-83-16.79-120.83-15.08-24.7-34.38-45.68-56-64.64a7.53,7.53,0,0,0-5.17-1.82c-2.24.26-2.5,2.67-2.57,4.66-.56,16.63-1.32,33.18-4.21,49.68-17,97-69.6,166.89-158.78,208.54-53.41,25-110.25,34.15-168.94,33.25C5254.91,1421.48,5238.26,1421.7,5221.61,1421.7Z"/><path class="cls-1" d="M3257.57,459.25c66,0,131.89,2.92,197.51,10.11,218,23.86,425.47,82.75,619,187.4,113.83,61.55,217.51,136.83,308.12,229.57,90.38,92.5,162.35,197.21,210.35,317.77a796.62,796.62,0,0,1,53.21,216.47c14.33,143.72-9.72,281.26-68.89,412.74-47.82,106.28-114.75,199.44-196.21,282.4-102.33,104.23-220.73,186.11-351,251.18-122.69,61.28-251.55,105-385.55,133.87a1818.8,1818.8,0,0,1-191.21,30.62c-77.59,8.25-155.47,10.77-233.51,9.53q-77-1.23-153.55-9.31c-227.63-24.31-443.67-86.57-644.08-199-113.48-63.66-216.29-141.26-305.31-236.53-84.08-90-151-191-195.61-306.22a796.72,796.72,0,0,1-50.71-213c-15-158.16,15.63-307.33,87.52-448.45,55.4-108.73,130.45-202.38,220-284.75C2277.45,751.85,2390,679,2512.33,620.9c120.2-57.11,245.82-97.87,376.12-124.66a1875.32,1875.32,0,0,1,209.41-30.48C3151,461,3204.25,459.37,3257.57,459.25Zm3.25,2057.18c29.52-.92,61.47-1.31,93.44-2.94A1809.87,1809.87,0,0,0,3594.13,2485c122.84-22.93,241.75-58.68,356.22-108.82,131.48-57.59,252.55-131.75,359.75-227.7,92.22-82.53,169.21-177.09,225.92-287.55a788.54,788.54,0,0,0,44.12-102.62c1.09-3.14,2.22-6.28,3-9.5,1.25-5-.94-7.5-6.25-6.87-38.36,4.54-76.7,9.28-115.07,13.73-59.56,6.9-118.82,15.94-177.93,25.81-91.93,15.36-183.33,33.52-274,55.13-141.93,33.81-281.66,74.85-417.7,127.81-113.7,44.27-224.86,93.79-327,161.52-5.13,3.4-8.9,3.84-14.3.27-17.2-11.4-34.52-22.67-52.33-33.07-62.75-36.63-128.14-68-195-96.4-214.16-90.92-437.2-151.85-665.14-196-66-12.8-132.37-23.7-198.92-33.5s-133.37-17.68-200.21-25.28c-7-.79-8.82,1.28-6.63,7.78a812.91,812.91,0,0,0,55.88,127.93c58.42,107.94,136.15,200.25,228.35,280.69,104.77,91.41,222.21,162.67,349.42,218.16,156.81,68.4,320.67,110,490.59,128.61A1979.08,1979.08,0,0,0,3260.82,2516.43Zm1322.09-1259.6c1.66-4.7-.47-9-2.14-13.2-8.3-21-16.06-42.32-25.23-63-49-110.41-119.26-206-204.93-290.58-101.5-100.2-218.17-178.85-346.23-240.82C3792.68,546.81,3568.17,496,3334,485.82a1795.92,1795.92,0,0,0-317.06,14.37A1756.59,1756.59,0,0,0,2791.86,545c-144.79,39.16-282,96.15-409.64,175.41C2273.3,788.07,2175.84,869.14,2093.71,968c-67.39,81.11-120.82,170.39-156.5,269.91-2.19,6.14-5.75,12-5.26,18.58,3.16,3.07,6.49,1.81,9.71,1.43l109.17-12.63c67.5-7.81,134.64-18.18,201.58-29.66q134.85-23.11,267.91-55.07c140.52-34,278.83-75.21,413.4-128.24,110.39-43.51,218.43-91.94,317.52-158.18,5.52-3.69,9.43-2.81,14.27.65,19.55,13.93,40.2,26.12,61,38,60.81,34.64,123.83,64.79,188.24,92,228.56,96.7,466.85,159.55,710.44,203.89q91.39,16.63,183.46,29.17c54.77,7.51,109.58,14.64,164.63,19.92C4576.52,1258.1,4579.85,1259.41,4582.91,1256.83Zm29.92,375.29c-3.56-3-6.88-2.4-10.18-2-29.78,3.29-59.56,6.73-89.36,9.84-64.92,6.79-129.57,15.69-194.05,25.71Q4193,1685.25,4068,1712c-139.37,29.87-276.82,66.67-411.58,113.13-134.23,46.27-265,100.51-388.24,171.71-8.4,4.86-14.3,3.48-21.83-.9-59.3-34.57-120.93-64.52-183.81-92-197.19-86-402.48-146.06-612.34-191.55q-100.51-21.78-202-38.5c-48.6-8-97.41-14.82-146.2-21.61-37.59-5.24-75.27-9.82-113-14.3-26.45-3.14-53-5.65-79.48-8.37-4.9-.5-7.36,2.15-6.19,7.41,5.37,24,11,48,16.58,72,1.25,5.29,5.19,6.84,10.39,7.43q66.5,7.5,133,15.42c66.81,7.87,133.26,18.2,199.51,29.69,100.35,17.41,200,38.11,298.79,63.08,146,36.9,289.33,81.81,428.49,139.6,81.22,33.73,160.59,71.22,236.13,116.48q13.71,8.22,27.08,17c3.22,2.1,5.94,2.13,9.11.14,11.85-7.41,23.65-14.92,35.69-22,72.93-43.08,149.33-79.16,227.53-111.44,222.44-91.83,453.7-152.69,689.95-196,51.73-9.47,103.58-18.24,155.7-25.35q71.25-9.72,142.59-18.73c24.44-3.09,49-5.51,73.47-8.09,4.59-.49,7.06-2.65,8.32-7C4603,1683.68,4609.37,1658,4612.83,1632.12Zm-9.17-261.95c7.34.3,9.42-1.61,8.61-6.7-3.8-23.69-9.53-46.94-15.85-70.07-1.61-5.9-4.55-8.49-10.94-9.19-43-4.76-86-10-129-15-66.8-7.9-133.28-18.1-199.54-29.56-105.61-18.27-210.48-40.17-314.34-66.76-141.35-36.18-280.17-80-415.06-135.89-82.5-34.17-163.08-72.22-239.7-118.29l-29-17.44c-11.73,3.35-20.69,11.59-30.85,17.66-70.41,42.12-144,77.83-219.52,109.71-221.74,93.63-452.69,155.73-688.78,199.89-52.34,9.79-104.89,18.51-157.52,26.62-44.08,6.79-88.39,12.19-132.65,17.79-33,4.17-66.14,7.81-99.25,11.35-6.28.67-9.58,3.27-11,9.31-4,17.5-8.42,34.92-12.44,52.43a197,197,0,0,0-3.42,19.61c-.38,2.92,1.36,5,4.72,4.8,2-.11,4-.39,6-.56,49.76-4.42,99.34-10.42,148.93-16.49q90.24-11,179.9-25.93,129-21.37,256.62-50.37c140.27-32,278.41-71.29,413.57-120.73,115.17-42.13,227.39-90.83,333.94-151.95,1.73-1,3.44-2,5.15-3a10.49,10.49,0,0,1,11.32-.15c2.32,1.31,4.61,2.66,6.92,4,62.35,35.95,127,67.27,193.08,95.72,195.11,84,397.95,143.07,605.25,187.8q100.54,21.69,202,38.34c49.27,8.07,98.75,15,148.21,21.8,38.25,5.29,76.6,9.93,115,14.42C4557.8,1366,4581.71,1368,4603.66,1370.17ZM3400.1,1897.25c-8-.25-15.67-.09-23.25-.83-8.59-.85-17.1-2.49-25.64-3.84-48.24-7.62-81.78-36.2-107.62-75.66-2.15-3.29-.29-6.87,3.55-6.93,31.32-.48,62.63-.82,94-1.31,5.62-.08,8.21,2.7,9.71,7.88a192.51,192.51,0,0,0,16.61,40.56c4.89,8.74,10.43,17.08,18.79,23.05,8,5.72,13.79,5.73,22,.07,6.16-4.27,10.67-10,14.31-16.43,6.27-11.15,9.66-23.27,12.34-35.69,4.11-19,4.53-38.36,4.49-57.68q-.61-265.87-1.28-531.76a70.93,70.93,0,0,0-3.05-21.56c-11.23-35.52-22.37-71.08-33.17-106.74-2.5-8.26-7-13.41-15-17-40.59-18.5-80.13-39.13-119-61-3.46-1.94-6.69-4.5-11.07-3.89-.84.92-2.12,1.72-2.52,2.84-11.39,32-22.66,64-34,95.93-2.06,5.78-2.44,11.7-2.52,17.71-.54,42-1.24,83.94-1.57,125.91q-1.35,166.92-2.45,333.83-1,120.93-2.6,241.85a75.93,75.93,0,0,0,5.94,30.93c12,28.87,23.46,58,35.11,87a40.49,40.49,0,0,0,2.21,5.56c1,1.75,2.86,2.9,5,2.15a46.57,46.57,0,0,0,7.17-3.32q61.77-34.83,126.09-64.71C3395.3,1902.84,3398.79,1902.14,3400.1,1897.25Zm791.35-236.09c3.74-.32,7.05-.4,10.29-.93,52.55-8.51,105-17.58,157.66-25.47,44.76-6.7,89.68-12.44,134.61-17.87,38.33-4.64,76.79-8.23,115.19-12.33,8.32-.89,8.43-1,9.58-9.75a731.21,731.21,0,0,0,0-189.1c-1.1-8.45-1.16-8.69-9.63-9.6-27.8-3-55.67-5.47-83.44-8.74-38.34-4.52-76.67-9.24-114.92-14.51-42.19-5.81-84.31-12.12-126.4-18.65-32.1-5-64.1-10.65-96.72-16.11-2.29,8.44-.35,16.28.53,24.09,2.15,19.19,4.54,38.35,6.62,57.54.3,2.78,2,6.72-3.44,8-4.1-4.91-8.38-9.93-12.54-15-17.25-21.17-34.62-42.25-51.61-63.62a38,38,0,0,0-19.3-13.09c-27.26-8.64-55-9.15-83.05-6.48a51,51,0,0,0-11.62,2.79c-30.8,10.62-48.66,50.16-16.94,80.08a67.09,67.09,0,0,0,12.9,9.33,252.75,252.75,0,0,0,23.08,11.76c20.69,9.09,41.38,18.16,63,25a293.46,293.46,0,0,1,51.43,21.64c15.31,8.31,29.49,18.11,41.55,30.79,16.66,17.51,26.7,38.12,28,62.41,1.54,28.68-3.56,55.7-21.75,79C4193,1654.34,4190.37,1655.91,4191.45,1661.16ZM3106.67,1895.07c9.4-14.91,17.78-29.79,17.09-49.17-1-27.93.2-55.94.49-83.91q3.21-305.71,6.63-611.43c.23-19.17-8.62-33.93-17.2-49.53-9.66,4.3-18.17,8.08-26.67,11.88-65,29.12-131.36,54.77-198.36,78.82-10.53,3.78-10.57,4.09-8.34,14.07.29,1.29.87,2.52,1.17,3.82q64.89,280,129.73,559.93a72.35,72.35,0,0,0,11,25.38c17,24.65,34.11,49.3,50,74.7C3080.41,1882.8,3090.56,1891.72,3106.67,1895.07Zm-776-396.43h.33q0-60,0-119.94c0-8.67.23-17.33.12-26-.17-12.51-2-14.27-13.74-12.68-9.23,1.24-18.39,3-27.58,4.6-54.46,9.34-109,18-163.79,25.49-51.46,7.06-103,13.65-154.65,19-21.87,2.25-43.69,4.94-65.58,6.9-6.07.54-7.87,3.71-8.69,8.68-.32,2-.76,3.93-1,5.91a817.48,817.48,0,0,0-3.68,139.65c.84,14,2.3,27.87,4,41.74,1.46,11.72,1.83,11.64,13.35,12.85,65.58,6.84,131.12,13.93,196.46,22.85,67.29,9.19,134.43,19.28,201.23,31.53,18.69,3.42,23.09,0,23.12-18.61Q2330.77,1569.62,2330.66,1498.64Zm480.65-279.24c-4.39.55-6.42.53-8.28,1.08-49.11,14.46-98.17,29.1-147.34,43.37a44.84,44.84,0,0,0-15.57,8.44c-16.21,12.78-32.58,25.36-48.76,38.18-9.91,7.85-20.3,15.28-29.22,24.16-21.25,21.13-41.4,43.37-62.73,64.41-8.52,8.42-8.9,15.54-4.17,26.23,36.62,82.71,72.53,165.73,108.87,248.57a190.86,190.86,0,0,0,13.32,24.49c7.05,11.23,11.33,25.7,22.27,32.59s25.09,8.13,37.85,11.87c.64.18,1.27.39,1.91.57,3.66,1.06,6.4-.08,8.42-3.32,11.56-18.56,22.91-36.69,27.59-59,14.19-67.7,30.2-135,45.41-202.5q23.48-104.14,46.82-208.32C2811.4,1253.82,2811,1237.3,2811.31,1219.4Zm1217.4,86.34c-85.42-19.86-167.08-40.51-247.45-64.24-3.22,4.2-1.71,7.42-1,10.57,3.47,14.91,7,29.8,10.47,44.71q42.39,182.81,84.79,365.61c1.49,6.44,3.1,12.84,7.37,18.34q13.5,17.36,26.37,35.18c3.19,4.43,6.9,5.91,12,4.68,12.93-3.15,25.88-6.24,38.77-9.5,4.47-1.13,6.49-4,5.74-8.87q-4.7-30.6-9.17-61.23c-2.94-20.21-5.75-40.43-8.64-60.86,6.43.44,8.49,5.17,11.49,8.51,13.8,15.38,27.12,31.19,41.18,46.31,35.16,37.84,79.2,43.5,126.77,32.91,16.56-3.68,27.5-16.07,34-31.5,7.59-18.12,1.37-38.12-15.88-51.28-27.61-21.07-56.91-39.47-89.24-52.55a316.23,316.23,0,0,1-75.8-43.86c-16-12.42-25.12-28.85-30-48.17-5.22-20.61-3.21-41,1-61.39,6.74-32.84,26.55-54.37,57.39-66.32C4014.23,1310.67,4019.81,1308.88,4028.71,1305.74Zm-541.48,553.71c3.33,2.09,6.31.46,9.38-.8,11.07-4.54,22-9.56,33.3-13.36,8.31-2.78,13.07-7.79,16.5-15.67,16.42-37.81,33.36-75.38,49.89-113.14a105.3,105.3,0,0,0,6.11-18.93q47.37-209.11,94.43-418.31a87.85,87.85,0,0,0,2.18-17.76c.18-12-.18-24-.53-35.94-.27-9.63-.37-9.74-9.14-12.84q-55.47-19.58-111-39c-7.54-2.64-9-2.18-13.27,4.18-5.54,8.3-10.15,17.31-16.36,25.05-11.91,14.83-14.79,31.31-14.75,50,.34,133.82-.15,267.65-.37,401.47-.06,36.62-.38,73.24-3,109.78-2.54,35.69-13.18,67.83-41.51,92C3488.21,1856.93,3487.84,1858.36,3487.23,1859.45Zm-668.71-277.71v.35c-19.33,0-38.66-.11-58,0-10.22.08-11,.78-13.27,10.88-7.63,33.75-15,67.57-22.85,101.27-1.5,6.45-.64,11.42,3.51,16.59q21.28,26.49,42,53.45a28,28,0,0,0,14.36,9.93q49.35,16.05,98.46,32.79c5.71,1.94,10,1.71,14.09-3.35,5.83-7.27,11.66-14.7,18.53-20.92,8-7.2,9.36-14.89,7.1-25-12.3-55.22-24.08-110.56-36.11-165.84-2-9.24-3.1-10-13.82-10.12C2854.51,1581.65,2836.52,1581.74,2818.52,1581.74Zm889.31,4v.37c-19.95,0-39.89.06-59.84,0-5.35,0-8.45,1.84-9.69,7.5q-11.58,52.51-23.61,104.92c-1.41,6.2-.66,11.43,3.24,16.81q25.72,35.52,50.78,71.52c3.15,4.5,6.35,5.9,11.68,4.16,27.12-8.87,54.25-17.72,81.54-26,6.36-1.94,10.46-4.87,12.66-11.14,3.07-8.77,6.68-17.34,10-26,4.24-11.17,10.92-22.16,11.86-33.61s-3.8-23.38-6.26-35.05c-4-18.84-7.68-37.75-12.31-56.43-4.51-18.21-1.29-16.89-20.17-16.94C3741.06,1585.7,3724.45,1585.74,3707.83,1585.74Zm-826-18.38c-.9-9.95-56.57-263.74-61.13-278.28-.74-2.39-1.63-4.89-4.34-5.93-21.31,87.31-59,266.5-59.8,284.3C2774,1569.52,2867.61,1569.45,2881.82,1567.36Zm826.92-283.89c-2.67,6.88-4.29,9.79-4.94,12.91-19,91.6-39.82,182.84-58.58,274.57,15.85,2.43,109.92,2.7,128,.37C3752.4,1476.6,3730.84,1382.18,3708.74,1283.47ZM2437.15,1485.58c-4,8.51-7.2,15.05-10.1,21.73-13.64,31.43-22.77,63.8-20.89,98.56.43,8-.14,16-.15,24-.06,31.51-3.8,20.82,18.09,45.16,1.33,1.49,2.67,3,4.11,4.35a17.14,17.14,0,0,0,8.48,4.86c25.24,5.35,50.46,10.83,76.44,16.43,4.72-12.46,9.52-23.2,3.57-36.66-25.25-57.11-49.66-114.6-74.46-171.91C2441.51,1490.36,2439.92,1489,2437.15,1485.58Zm-33.48,36.49c7.91-9.91,10.59-19.46,14.37-28.2,15.22-35.18,35.25-67,61.87-94.82,20.74-21.65,41.09-43.67,63.38-63.78,2.39-2.16,5.63-3.77,6.23-8.75-12.07-8.16-25.46-15.17-38.46-22.81-3.69-2.18-7.3-2.18-11.45-1.22-18.15,4.2-36.28,8.59-54.6,11.89-11.12,2-20,6.48-26.55,15.69a23.87,23.87,0,0,1-4.06,4.4c-6.12,5.08-7.78,11.46-7.9,19.37-.63,43.29-1.89,86.58-2.79,129.87C2403.46,1495.49,2403.67,1507.29,2403.67,1522.07Z"/><path class="cls-1" d="M1858.09,800.4c3.19,7.61,8.07,11.22,12.17,15.4,33.07,33.79,66.47,67.25,99.16,101.39,7.56,7.9,15.23,11.77,26.1,11.4,11.29-.39,22.62.67,33.93,1.24a4,4,0,0,1,2.87,1.93,4.24,4.24,0,0,1-.29,3.6c-4.64,6.34-42.19,42.88-49.62,48.53-4.39-2.56-2.19-7-2.77-10.53-.53-3.26-.2-6.65-.47-10-.91-11.21,2.35-23.54-3.05-33.38-4.94-9-13.94-15.81-21.33-23.41-31.09-32-62.5-63.68-93.28-96-11.75-12.33-24.27-22.57-41.27-26.4-3.85-.87-7.53-2.61-11.2-4.17-3.14-1.34-3.58-4.22-1.57-6.34,11-11.58,22.19-23,33.41-34.32a6.27,6.27,0,0,1,7.34-1.22c3.66,1.58,7.3,3.2,11,4.75q96.51,40.67,193.08,81.22c4.73,2,9.15,5.59,15.68,4.43,3.13-4.34-.14-8.4-1.86-12.13q-22-47.4-44.39-94.63-16.39-34.82-32.91-69.57c-1.7-3.59-3.79-7-5.22-10.7-2.2-5.65-6.19-7.67-12.08-8.63-6.75-1.11-14.76,2.71-20.16-4.47,2.57-6.4,8.17-10.28,12.71-15,13.86-14.39,27.93-28.57,42-42.78,1.77-1.79,3.86-3.27,6.4-5.4,4.11,4.33,3,9.19,2.71,13.29-.88,11.49,3.29,19.93,11.64,28,22,21.29,43.14,43.48,64.62,65.34,23.8,24.22,47.94,48.13,71.2,72.88,7.92,8.43,16.26,13.09,27.7,12.52a39.62,39.62,0,0,1,7.92.88c2.71.42,3.62,3.71,1.73,6-.42.52-.88,1-1.34,1.48q-26.59,27.09-53.25,54.12c-.8.81-2.34.89-3.64,1.35-3.81-.84-2.29-4.13-2.66-6.41a33.23,33.23,0,0,1-.35-8c.74-9.37-3.34-16.13-9.84-22.71-35.58-36-70.77-72.38-106.1-108.62-4.65-4.76-9-9.87-14.1-14.13-4.1-3.44-7.38-12.7-13-8.4-5.19,3.95,1.84,10.87,4.1,15.76,22.62,48.91,46,97.46,68.69,146.36,6.24,13.46,13.64,25.64,24.85,35.46a109,109,0,0,1,8.36,8.88c1.24,4-.29,5.45-1.64,6.77-8.07,7.83-14.15,19.94-24.68,22.38-10.7,2.47-21-6.76-31.28-11.12-55.12-23.3-110.13-46.89-165.22-70.27C1872.85,804.66,1867.27,800.76,1858.09,800.4Z"/><path class="cls-1" d="M4223.94,474.7c.13,41.18-13.11,72.93-40.06,98.57a123.77,123.77,0,0,1-173.09-2.22c-48.65-48.38-51-128.68-4.6-179.16,32.4-35.22,73.2-48.42,119.66-38.08s76.74,40.64,92.36,85.46A111.22,111.22,0,0,1,4223.94,474.7ZM4160.51,515a291,291,0,0,0-19.32-95.59c-5-13.09-11.52-25.46-20.47-36.39-7.29-8.91-15.9-16.12-26.78-20.2-16.89-6.33-29.67-2.58-40.48,11.74-8.23,10.9-12.54,23.5-14.52,36.76-7.06,47.37-.1,92.8,19.84,136.27a118.23,118.23,0,0,0,18.15,28.55c7.09,8.16,15.39,14.71,25.55,18.63,15.32,5.91,26.9,3.24,37.89-8.65,6.9-7.47,11.29-16.34,14.4-26C4159.78,544.74,4160.24,528.79,4160.51,515Z"/><path class="cls-1" d="M3099.92,2767.74c26.07,83.31,114.37,85.22,152.32,43.75-20.26-31.49-35.15-66.18-52-99.87a79,79,0,0,0-19.74-24.88c-10.36-8.84-22.07-11.64-35.32-7.85-17.72,5.07-30.48,16-37.43,32.92-2.95,7.21-6.19,14.47-6,25.77-5.3-11.56-.75-18.76,2.35-25.23a107.36,107.36,0,0,1,23.73-31.71c26.3-24.67,78.68-21.27,101.77-.19,9.4,8.58,18.39,17.46,24.74,28.56,7.28,12.7,14.24,25.58,21.32,38.39,2.55,4.61,5.07,9.24,8.49,15.5,11.87-15.15,17.46-31.74,25.39-47.67-10-8.13-21.42-12-31.9-17.45-19.21-9.91-35.67-23.2-50.13-39.08-7.67-8.44-13.89-17.85-16.88-29.08-6.65-25,1.67-46.24,23.92-60.07,22.63-14.07,44.21-10.44,64.36,5.95,4.54,3.69,8.28,8.72,11.39,13.76,8.27,13.39,8.74,27.22.89,41.15-3.87,6.85-7.51,13.83-11.37,21,4.35,5.86,11.64,5.94,17.63,8.25,5.44,2.11,10.92,6.42,17,4.64s7.81-8.57,11.43-13.14c14.48-18.28,32.36-31.48,55-37.71,9.47-2.61,11.61-.37,9.62,10a42.55,42.55,0,0,1-1.31,5.84c-3.83,11.12-2.91,23.65-10,33.81-11.22,2.52-22.51.3-33.76.45a135.25,135.25,0,0,0-13.95.8c-2.41.28-5.72-.68-6.86,2.62s1.85,4.32,3.94,5.69c5,3.28,9.94,6.69,15.06,9.81,30.41,18.52,53.16,73.22,30.6,119.52a67.66,67.66,0,0,1-33.66,32.78c-30.22,13.72-59.5,11.73-87.45-6.31-5.57-3.59-10.67-7.91-16.07-12-6.44.53-10.09,6-15,9-28.59,17.71-59,19.46-89.72,8.56-28.25-10-45.08-31.71-53-60.41a12.26,12.26,0,0,1-.07-4A7.09,7.09,0,0,1,3099.92,2767.74Zm283.62,26c.22-7.09-2.89-15-7.11-22.71-12.93-23.52-32.46-40-55.6-52.8-3.65-2-6.58-1.53-8.28,1.84-7.13,14.19-14,28.52-20.86,42.84a15.51,15.51,0,0,0-1.14,11.62c5.18,16.65,12.28,32.27,24.42,45.15,10,10.61,22.71,13.55,36.48,11.39A38.47,38.47,0,0,0,3383.54,2793.75ZM3261.1,2564.57c-4.43,1.22-11.77,2.38-18.34,5.26-11.83,5.17-18.52,14.54-19.82,27.72-1.33,13.45,3.82,23.37,15.32,30a151.92,151.92,0,0,0,16,8.07c9.16,3.93,18.71,7,27.67,11.31,7.93,3.84,13.66,2.36,19.37-4a43.3,43.3,0,0,0,10.73-20.52C3317.39,2598,3301.21,2567.18,3261.1,2564.57Z"/><path class="cls-1" d="M2410.17,2389.17l-27.22,75c8.32-2.07,14.6-3.5,20.81-5.18,31.22-8.45,61.07,3.65,76.83,34.41,16.3,31.81,19,64.82,8.64,98.69-7.12,23.28-20.05,43.25-37.75,60.17-30.79,29.45-89.41,29.52-117.12-12.48-4.35-6.59-8.61-13.24-13.34-20.53-7.95,3-15.61,5.27-22.6,8.82-9.16,4.64-17.74,4.24-26.53-.35-2.32-1.22-4.69-2.36-7.35-3.7-1.49-6.45,2.33-11.56,4.28-16.85q36.16-98.16,72.74-196.19c1.61-4.35,3.14-8.75,4.83-13.08,2.1-5.34,1.81-10-1.92-14.84-3.55-4.6-8.13-8.75-9.67-16.15,5-2.41,10.19-1.08,14.86,0C2370.48,2371.46,2389.44,2380.92,2410.17,2389.17Zm37.21,129.37a66.41,66.41,0,0,0-12-40c-7.49-10.79-18.18-16.24-31.05-13.29-12.5,2.86-25.39,4.47-30.87,20.7q-19.12,56.61-41.82,112c-5.51,13.38-2.58,22.83,5.24,32.73a75.59,75.59,0,0,0,8,8.88c12.63,11.63,24.4,13.21,40.22,5.77,13.77-6.47,23.56-17.16,31.32-29.82,12.58-20.52,22.1-42.32,27.63-65.87C2446.16,2540.45,2447.17,2531.31,2447.38,2518.54Z"/><path class="cls-1" d="M3792.27,2586.5a5.31,5.31,0,0,0-2.52,6.75c11.73,34.06,17.21,69.64,25.54,104.53,2.31,9.7,5,19.34,6.78,29.14,1,5.79,3.84,9.44,8.45,12.7,5.81,4.1,12.84,6.8,17.35,13.1-15.54,6.6-71.42,20.12-92.94,22.46.42-6.34,4.09-11.07,7.28-15.56,5.55-7.8,5.72-15.83,3.62-24.65-7.22-30.41-14.21-60.88-21.31-91.32-1.51-6.48-2.73-13.06-4.77-19.36a75.65,75.65,0,0,0-7.13-16.35c-5.14-8.31-12.42-14.36-22.95-13-12.18,1.56-20.5,8.88-25.67,19.82-1.49,3.17-.55,6.49.2,9.76,9.53,41.48,19.13,82.95,28.43,124.49,1.69,7.53,4.53,13.57,11.57,17.56,5.13,2.9,9.66,6.85,12.76,9.1,2,3.21,1.59,4.33-.16,4.75q-42.63,10.31-85.28,20.54c-2,.49-4,.27-4.8-1.82-.4-1.06.16-2.52.44-3.77a6.4,6.4,0,0,1,1-1.73c14.39-23.58,12.48-15.64,6.48-42.58-7.82-35.05-16.16-70-23.94-105.05-1.31-5.88-4-9.26-9.55-11.39s-11.79-2.7-16.32-7.12c9.36-9.5,45.29-32.94,68.15-44.28,2.33,7.47,4.62,14.8,6.89,22.05,4.1.92,5.84-1.79,7.83-4.51,5.92-8.07,12.17-16,20.15-22.07,15.07-11.55,31.77-16.19,50.6-11a40.12,40.12,0,0,1,20.16,12.31c3.84,4.43,8.38,6.13,13.75,6.81Z"/><path class="cls-1" d="M2625.49,2710.91c-4.3,3.07-8.75,6-12.89,9.23-32.88,25.94-98.85,13.54-112.42-46.1a55.77,55.77,0,0,1,.51-25.75,113.86,113.86,0,0,1,9.65-26.13c16.94-32.23,43.4-45.48,79.3-39.36,5.88,1,11.68,2.53,17.45,4.06,3,.79,5.14,0,6.66-2.43a5.72,5.72,0,0,0-.65-7.3,48.44,48.44,0,0,0-22-13.1c-9.58-2.78-19.16-5.54-28.69-8.47-3.63-1.11-4-5.13-.85-7.65,19.6-15.44,42.29-22.42,66.85-22.37a123.6,123.6,0,0,1,57.6,14.08c28.61,15,39.29,38.72,31,69.87-10.11,37.89-20.26,75.78-31.22,113.43-3,10.32-3.53,19.23,2.28,28.46,2.8,4.45,4.62,9.51,6.76,14-3,3.91-6.23,2.19-9.22,1.34-17.26-5-34.51-9.88-51.72-15-13-3.85-13.16-4.36-9.59-18.32,1.64-6.43,3.1-12.91,4.64-19.36,1.3-2,2.26-4.18,0-6.06C2628.72,2707.89,2626.68,2709.91,2625.49,2710.91Zm14.73-59.94c0-18.44-6.38-36.41-16.81-47.63-16.54-17.79-42.74-15.88-56.31,4.18a45.28,45.28,0,0,0-4.59,8.78c-9.91,25.4-9.28,50.48,2.94,75,7.16,14.37,18.73,22,35,21.63,15-.33,24.28-9,30.75-21.61S2639.92,2665,2640.22,2651Zm7.28-12.38,2.82-.1q10.54-38.26,21.06-76.55a34.08,34.08,0,0,0,1.08-7.87c.42-14.89-12.7-25-26.61-20.46-14.13,4.62-23.64,14.25-31.17,26.43-4.33,7-4.64,7.62,1.31,13.53,16.08,16,25.75,35.18,29.78,57.36C2646.24,2633.5,2646.92,2636,2647.5,2638.59Zm-32.06-51.71,1.42,1.42a12.26,12.26,0,0,0,1.25-2.68c.07-.33-.8-.87-1.25-1.32Z"/><path class="cls-1" d="M4193.62,2645.66c-23.74,9.6-43.41,17.67-63.17,25.5-9.17,3.63-10.24,3-14.35-7.18-3.47-8.55-6.8-17.16-11.26-28.48-3.18,10.33-5.56,18-7.9,25.67-9.53,31.38-54.92,60.15-96.94,41.54-13.25-5.87-23.87-14.56-30.51-27.49-10.35-20.19-14.24-41.53-8.75-63.81,7.52-30.52,30.3-45.48,58-55,3.11-1.07,6.51-1.28,9.68-2.19a4.34,4.34,0,0,0,2.54-2.44c.71-2.34-1-3.1-2.95-3.89-11.68-4.86-23.39-4.46-35-.11-10,3.72-19.78,7.79-29.71,11.57-4.17,1.58-6.81-.61-5.81-4.7A98.28,98.28,0,0,1,3977,2515.8c20.66-25.36,47.58-40.07,79.59-45.4,26.75-4.45,48.8,7.73,59.05,33.27,12.13,30.21,23.26,60.83,34.82,91.28,1.18,3.1,2.77,6.11,3.49,9.32,4.09,18.06,13.45,31.39,32,36.85C4187.83,2641.66,4189.39,2643.1,4193.62,2645.66Zm-161.18-86.17a35,35,0,0,0-36,39.2c4.21,31.93,21.86,55.4,51.82,67.68,24.08,9.87,51.34-9.88,48.71-35.53-3-29.25-16.67-52.77-44.06-66.59A43.83,43.83,0,0,0,4032.44,2559.49Zm45.73,11.61c.27-.61.88-1.31.74-1.81-7-25.52-16.85-50-27.14-74.29-7-16.57-23.65-17.84-34.83-4a56.77,56.77,0,0,0-6.8,12c-4.61,10-3.85,20.67-3,31.27.3,3.83,2.5,5.83,6.32,6.25,23.85,2.63,44.49,12,61.31,29.36C4075.5,2570.68,4077,2570.72,4078.17,2571.1Z"/><path class="cls-1" d="M2461.36,515.07q18.13,9.9,36.25,19.79c11.08,6.08,22.18,12.13,33.19,18.31,4.15,2.33,8.28,4.09,13.21,3.41,19.73-2.71,39.35-5.62,57.56-14.51,6-3,11.7-6.27,16.36-11.08,12.37-12.76,13-29.5,1.72-43.2a53.51,53.51,0,0,0-26.1-17.67c-24.23-7.27-48.7-13.46-74.29-13.66-20.11-.16-39.55-4.28-58.68-10.42-21.33-6.86-34.67-21.25-42.09-42-5.08-14.18-5.25-28.74-3.58-43.36,1.08-9.54,6.12-17.47,12.6-24.41a74.66,74.66,0,0,1,29.79-19.45q45-16,90.22-31.53c9-3.1,10.39-2.56,14.21,5.29,9.53,19.56,18.83,39.24,28.28,59-4.74,2.59-7.23-.47-9.64-1.9-17.73-10.51-35.4-21.13-52.84-32.12-6.42-4-12.82-6.65-20.54-5.95-20.7,1.9-40.63,6.54-59,16.66-7.61,4.2-14.44,9.49-19.14,17.08-8.83,14.25-7,26.4,5.78,37.07,8.95,7.46,19.58,11,31,12.68,21.14,3.16,42.4,3.76,63.73,3.36,17.32-.33,34.66-.4,51.56,4.19a139.27,139.27,0,0,1,20.71,7c34.28,15.47,52.42,55.17,42.41,91.47-6.77,24.59-23.75,40.21-46.25,48.76-32.24,12.25-65.32,22.26-98.1,33.05-6.65,2.18-8.47,1.43-11.36-4.26-9.9-19.52-19.59-39.15-29.36-58.74Z"/><path class="cls-1" d="M3337.32,232.28c-5.89-.63-7.23-4.06-9.24-6.52-13.07-16-26.21-31.9-38.92-48.16a34.41,34.41,0,0,0-17.81-11.95c-20.12-6.19-40.77-7-61.33-4.21-13.44,1.8-25.41,7.72-31.89,21.1a20.86,20.86,0,0,0-1,17.27c4.86,13.33,14.5,22.14,26.24,28.95,17.32,10.05,36.07,16.94,54.73,24,10.56,4,21.25,7.72,31.66,12.09a130.29,130.29,0,0,1,35.58,21.87c28.49,24.9,35.62,67.23,16.66,100-11.91,20.57-30.69,32.16-53.67,33.46-38.55,2.19-77.23.85-115.79-1.8-1.26-.09-2.45-1-4.35-1.75-4.1-23.51-6.62-47.56-9.83-71.92,6.66.37,8.37,4.42,10.87,7.22,14.64,16.38,29.25,32.81,43.61,49.45,4.51,5.23,9.52,9.09,16.35,10.6,18.28,4,36.66,6.38,55.47,5.37a51.08,51.08,0,0,0,19.13-5c15.95-7.47,22.12-23.44,16-40a57.7,57.7,0,0,0-20.08-26.76c-19.82-14.72-40.4-28.15-63.57-37.16-16.84-6.54-32.23-15.63-47.13-25.83-26.19-17.92-34.46-42.91-29.89-73.06,5.13-33.89,25-52.3,59.28-53.12,33.94-.81,67.92.14,101.87.51,8,.08,9,1.21,9.89,9.33C3332.6,188.1,3334.9,209.93,3337.32,232.28Z"/><path class="cls-1" d="M4644,843.47c2.29.53,5,.7,7.36,1.78,12,5.59,25.11,8.65,36.24,16.15-.25,13.66-8.11,24.82-12.35,37.16-4.32,12.56-9.71,24.76-14.11,37.29-2.59,7.37-7.27,12.23-13.89,16.07-30.88,17.9-63.54,22.3-98.05,13.54-54.31-13.78-88.16-48.73-100.2-102.6-11.16-49.94,1.74-95.11,36.76-132.93,32.74-35.34,96.76-46.69,136.7-30.76,43,17.16,72.12,46.4,86.53,90.33.59,1.81,1.36,3.83-1.67,6.32-17.47-5.54-34.66-13.89-52.4-20.72-4.71-1.81-6.28-6.56-8.49-10.66A170.09,170.09,0,0,0,4611,719c-9.95-9-21-16-34.11-20a40.5,40.5,0,0,0-29.08,1.83,81.2,81.2,0,0,0-36,30.54c-8.92,13.55-14.09,28.57-16.85,44.44a172.24,172.24,0,0,0,3.25,73.19,291.18,291.18,0,0,0,17.8,50.73,123.81,123.81,0,0,0,41.8,49.92c20,13.94,41.25,17.52,64.23,8.46,2.47-1,5.17-1.45,7.52-2.63,22.55-11.33,21.4-8,18.55-32.59-2.62-22.47-4.06-45.07-5.84-67.63C4642,851.46,4640.5,847.35,4644,843.47Z"/><path class="cls-1" d="M4239.44,707.34c-21.72-13.85-39.46-26.59-57.37-39.06a3.49,3.49,0,0,1-.91-3.18,4.71,4.71,0,0,1,2.73-2.63c9.65-2.51,19.37-4.74,29-7.22,16-4.11,16.06-4.11,24.82-17.35q28.56-43.08,57-86.24c10.59-16,20.9-32.2,32-47.83,7.66-10.78,12.74-21.6,8.68-35.11-.73-2.42-.1-5.24-.1-7.72,3.92-1.88,6.49.38,9.19,2.24,11.5,7.94,22.84,16.13,34.59,23.68,5.56,3.57,8.29,7.79,8.85,14.45,1.68,19.89,4.07,39.72,5.9,59.6,3.24,35.12,6.26,70.26,9.39,105.4.24,2.65.21,5.43,1.08,7.88.6,1.66,2.89,3.42,4.68,1.78a40,40,0,0,0,6-7.71c13.8-21.12,27.12-42.57,41.51-63.27,5.85-8.42,7.15-16.64,5.6-26.23-1.79-11.09-4.55-22.11-3.78-34.83,8.71.87,13.64,7.59,20,11.35a217.18,217.18,0,0,1,18.13,12.38c6.25,4.6,13.79,7.73,19.48,15.84-12.7,3.21-23.92,6.73-35.41,8.72-8.58,1.48-14.29,5.22-19.05,12.55q-44,67.7-88.65,134.94c-3.53,5.33-5,10.37-3.6,16.8,1.94,9.09,3,18.38,4.23,27.61.59,4.46,2.34,9,.12,13.52-14.82-6.49-46-28.14-57.2-40,13.3-3.21,26-6.22,38.73-9.38,6.64-1.66,7.83-2.92,7.25-9.64-1.61-18.57-3.54-37.1-5.39-55.64q-5.17-51.66-10.41-103.29-3.83-37.74-7.76-75.47c-.19-1.82-.19-4-2.89-4.39-2.25-.3-3.68.95-4.77,2.56-3.34,5-6.56,10-9.85,15-27,40.9-53.74,82-81.21,122.55-6,8.93-8.45,17.17-6.15,27.78C4236.39,679.34,4237.27,691.29,4239.44,707.34Z"/><path class="cls-1" d="M2181.87,457.85c5.33,6.24,1.61,13,.09,19-2,7.75-.78,14,3,20.8,23,41.28,45.42,82.9,68.6,124.08,12.89,22.89,31.13,39.6,57.88,45.3,24.75,5.28,46.54-3.51,60.31-25,16.1-25.11,14.9-51.5,5.35-78.34a112.18,112.18,0,0,0-7.42-16.15c-18.07-33.06-36.71-65.81-54.17-99.19-5.16-9.85-11.76-15.14-22.2-17.77-12-3-23.68-7.41-35.58-11.23.92-2.11,1.11-3.89,2-4.42q29.31-17,58.83-33.74c.84-.47,2.34.21,4.86.5a182.43,182.43,0,0,1-7.68,32.59c-4.54,13.64-2.06,25,5.12,37.5,19.05,33.23,36.5,67.39,54.62,101.16,11,20.48,15.41,42.11,11.94,65.27-2.79,18.58-11,34.55-25.37,46.24-20,16.26-42.92,26.71-69,28.69-34.46,2.63-60.45-12.48-80.4-39.44-3.93-5.32-7-11.34-10.16-17.17-19.93-36.14-40-72.19-59.5-108.59-5.33-10-11.27-17.71-23.18-19.47-3.83-.57-7.43-2.69-10.79-4-.28-1.11-.6-1.65-.47-2a3.07,3.07,0,0,1,1.14-1.61q36-21.36,72.13-42.64Z"/><path class="cls-1" d="M2844.42,2635.84c6.15-3.82,7.91-10.6,11.39-16,18.41-28.56,48-38.23,82.21-26.09-8.15,15.36-16.21,30.61-24.35,45.82-2,3.77-5,5.83-9.68,5.32-5.95-.64-11.95-1-17.94-1a126.25,126.25,0,0,0-17.94.69c-15.88,2.13-27.13,10.27-31.71,26.2-1.66,5.74-3.32,11.52-4.49,17.37-4.43,22.17-8.19,44.49-13.16,66.53-2.51,11.15-1.5,20.78,5.35,30,2.72,3.66,4.53,8,6.92,12.32-13.27,1.4-60.52-7.43-95.9-17.67,1.66-7.4,8.6-9.6,13.57-13.32,6.12-4.59,9.9-9.6,11.46-17.54,8.43-43.06,17.42-86,26.52-128.94,2-9.26,1.08-16.82-7-22.91-3-2.25-6.55-4.74-6.92-9.55,2.44-3.88,6.76-2.28,10.23-3.07,3.24-.73,6.56-1.11,9.85-1.57,17.79-2.47,35.58-5,53.38-7.32,4.27-.56,6.32,1.44,5.65,5.68-2.27,14.45-4.83,28.86-7.26,43.28C2844,2627.74,2842.3,2631.45,2844.42,2635.84Z"/><path class="cls-1" d="M3642.75,456.59l-73.27-10.69c-3.89-2.42-4.12-3.78-2.66-4.75,12.08-8.1,14.83-18.52,10.7-32.55-4.3-14.63-6.74-29.84-9.44-44.9-1.14-6.3-4.76-9.61-10.34-10.43-21.64-3.19-43.33-6-65-8.83a31.19,31.19,0,0,0-8,0c-2.58.32-4.93,1.13-6.28,4-5.58,12-11.07,24-17.28,35.67-2.39,4.48-1.41,7.45,1.36,10.64,8.31,9.54,16.77,18.95,25,28.59,2.42,2.84,6.31,5,5.84,11-25-1.68-49.54-6.58-74-10-1.18-4.4,1.54-6.39,4.14-8.45,1-.83,2-1.8,3.08-2.55,21.5-14.54,35.12-34.59,45.77-58.26,16.75-37.2,35.89-73.34,54.65-109.61a150.63,150.63,0,0,0,15.88-54.78c.83-8.17,2.91-10.21,9.9-8.2,9.52,2.72,20.14-.07,28.85,6.07,2,9.07,4.24,18.1,6.08,27.21q19.95,98.81,39.75,197.66c2.63,13.07,5.49,26,14.09,36.84C3642.25,451.12,3642.06,452.73,3642.75,456.59ZM3563.88,350c0-3.23.31-5.1,0-6.85q-10.87-54.52-21.84-109a2.74,2.74,0,0,0-2.3-2.59,4,4,0,0,0-4.93,2.17c-2,3.41-3.45,7.09-5.18,10.64q-19.38,39.68-38.77,79.36c-1.43,2.94-2.93,5.86-4.13,8.9-1.83,4.66-.09,7.9,4.46,8.62,16.24,2.58,32.45,5.43,48.75,7.55A151.34,151.34,0,0,0,3563.88,350Z"/><path class="cls-1" d="M3768.34,224.12c28.1,5.54,52.87,11.45,77.31,17.85-.25,6.07-4.43,7.95-7.64,9.61-10.05,5.22-13.12,14.07-15.23,24.29-4.7,22.81-10.11,45.48-15.17,68.21q-13.87,62.37-27.64,124.76c-1,4.52-1.35,9.18-2.09,14.37,15,7.76,31.83,8,47.28,13,3.45,1.12,6.26-1.83,9-3.53,17.54-10.88,35-21.95,52.45-32.9,5.53-3.47,11.16-6.78,16.35-9.93,2.34,1.34,2.4,2.32,1.6,3.73-9.49,16.81-19,33.61-28.3,50.5-2.28,4.13-5.46,5.56-9.85,4.61-7.15-1.54-14.39-2.82-21.41-4.87-32.39-9.47-65.58-15.5-98.39-23.13-10.33-2.4-20.58-5.11-31-7.71.26-6.43,5.14-8.08,8.65-10.18,8.05-4.79,12-11.58,14-20.62,7.87-36.43,16.19-72.76,24.38-109.11,4.83-21.43,9.45-42.9,14.71-64.22,3-12.09,4.1-23.5-4.18-34.1C3771.49,232.69,3770.88,229.94,3768.34,224.12Z"/><path class="cls-1" d="M2939.83,346.08a175.8,175.8,0,0,0,0,43.55c1.16,9.23,2.89,18.39,4,27.62,1.1,9,4,16.59,12.22,21.59,3.34,2.05,6.13,5,8.7,7.1-.07,3.18-1.5,4.49-3.44,4.82-25.45,4.21-50.91,8.32-76.21,12.44-2.6-6.78,2.08-9.73,4.66-12.89,6.43-7.92,7.26-16.12,5.53-26-5.29-30.11-9.57-60.39-14.32-90.6-4.65-29.54-9.93-59-13.86-88.65-1.59-12-4.7-21.84-15.59-28.22-2.77-1.62-5-4.23-8.69-7.53,14.2-5.87,28.09-6.18,41.47-8.58,13.63-2.45,27.35-4.4,41.18-6.58.86,7-3.35,10.83-6.25,14.92-4.56,6.41-5.77,13-4.5,20.68,3.37,20.32,6.28,40.73,9.41,61.09q3.64,23.65,7.37,47.29c.77,4.91,2.2,9.21,8.58,8.45Z"/><path class="cls-1" d="M4122.38,2451.66c12.33-22.09,43.9-68.21,55.27-81,6.24,15.15,12.27,29.8,18.49,44.89,12.18-1.35,22.17-8.65,38.28-12.16-13.75,9.24-26.55,10.34-36.09,18.45.82,2.75,1.38,5.29,2.31,7.68q26.59,67.77,53.3,135.52a107.49,107.49,0,0,0,5.63,12.75c11.18,20.23,21.33,26.35,44.49,27.23-.1.66,0,1.7-.34,1.92-41.46,25.34-79.2,12-98.47-20.47a156.1,156.1,0,0,1-10.25-21.58c-13.61-33.94-27-68-40.44-102-2-5-3.85-9.93-6-14.78-1.57-3.53-4.37-4.63-8.09-3.19C4135.59,2446.76,4130.68,2448.55,4122.38,2451.66Z"/><path class="cls-1" d="M2671.67,241.37c26.38-7.39,51.73-14.72,78-20.09-.22,2.56.13,4.11-.49,5-11.39,15.71-8.1,31.71-3.41,49.1,15.42,57.18,29.83,114.64,43.73,172.21,2.88,11.93,7.37,21.08,18.31,26.74a26.5,26.5,0,0,1,4.78,3.58c2.17,1.83,1.66,5.48-.91,6.16-24.29,6.38-48.6,12.71-73.13,19.11-2.19-7.32,2.05-11.39,4.38-15.69a27.19,27.19,0,0,0,2.67-21c-16.3-63.83-32.51-127.7-48.19-191.69-2.56-10.46-7.18-18.15-16.38-23.55C2677.74,249.24,2674,247.3,2671.67,241.37Z"/><path class="cls-1" d="M3792.31,2586.82c0-1.33-.36-2.79.05-4,9-25.41,39.3-45.08,65.65-42.64,11.88,1.1,21.55,6.64,29.3,15.44a66,66,0,0,1,15.32,29.87c7.9,35.74,16.36,71.36,23.92,107.17,2.48,11.72,6.43,21.3,18.13,26.44,4,1.75,8.52,3.53,10.45,8.24-12.21,6-67.42,19.45-92.14,22.43-1.38-6,2.85-10.08,5.92-13.81,7.25-8.82,6.68-18.06,4.25-28.24-6.36-26.54-12.25-53.18-18.34-79.77-2.38-10.38-4.67-20.78-7.25-31.11a40.63,40.63,0,0,0-16.64-24.12c-6.42-4.48-13.69-5.86-20.9-2.92-7.82,3.18-16.87,5.66-17.81,16.59A1.93,1.93,0,0,1,3792.31,2586.82Z"/><path class="cls-1" d="M2946.89,312.82c-2.41-7.84,1.83-14.39,4.82-20.79,8.95-19.2,18.1-38.46,30.77-55.51,6.24-8.41,5.84-15.18.58-23.39-4.28-6.68-7.62-14-11.19-21.11-1.42-2.83-.35-5.58,2.68-6.09,22.23-3.71,44.51-7.17,66.48-10.67,3,5.11-1.19,6.58-3.09,8.46-11.37,11.2-22.73,22.43-34.61,33.07-10.53,9.44-18.07,21-25.9,32.54-3.22,4.74-2.68,8.29,0,12.64,9.86,15.78,19.54,31.67,29.32,47.5,15.72,25.44,31.33,51,47.25,76.27,9.44,15,16.23,32.19,34.66,41-3.46,2.48-4.87,4.33-6.48,4.53-23.52,2.93-46.58,9.38-70.44,10.26-1.41-7.61,7.81-10.82,5.85-16.75-2-6.15-6.15-11.67-9.6-17.31q-24.47-40-49.08-79.82c-3.46-5.6-6.11-11.91-12.45-15.16Z"/><path class="cls-1" d="M2940.12,346.56V330c2.45,7.88,1.41,11.94-.34,16C2939.83,346.08,2940.12,346.56,2940.12,346.56Z"/><path class="cls-1" d="M2946.5,312.47a54.71,54.71,0,0,1-.7,7.39c-.59,2.58,1.93.35-.5,1.44a5.42,5.42,0,0,1-1.54-2.75c0-2.33-.19-5.09,3.13-5.73Z"/><path class="cls-1" d="M2181.86,458.2l2.69,2.06c-2.9,1.74-2.56-.5-2.67-2.29C2181.87,457.85,2181.86,458.2,2181.86,458.2Z"/></g></svg>